<svg xmlns="http://www.w3.org/2000/svg" width="1080" height="1440" viewBox="0 0 1080 1440"><defs><marker id="arrow" markerWidth="9" markerHeight="9" refX="8" refY="4" orient="auto"><path d="M0 0L8 4L0 8" fill="#1C796A"/></marker><pattern id="grid" width="40" height="40" patternUnits="userSpaceOnUse"><path d="M40 0H0V40" fill="none" stroke="#DDE3D9" stroke-width="1"/></pattern></defs><g font-family="Noto Sans CJK SC, Noto Sans CJK TC, PingFang SC, Microsoft YaHei, sans-serif"><rect width="1080" height="1440" fill="#F7F4EA"/><rect x="60" y="410" width="960" height="600" rx="34" fill="url(#grid)"/><text x="65" y="77" font-size="25" fill="#1C796A" font-weight="800" text-anchor="start">MICRODUCK / 40天复现实验</text><text x="1015" y="79" font-size="27" fill="#1C796A" font-weight="800" text-anchor="end">EP 07</text><path d="M65 111H1015" stroke="#183435" stroke-width="2"/><text x="65" y="217" font-size="78" fill="#183435" font-weight="900" text-anchor="start">61维进来</text><text x="65" y="320" font-size="78" fill="#183435" font-weight="900" text-anchor="start">14维出去</text><text x="67" y="372" font-size="24" fill="#1C796A" font-weight="500" text-anchor="start">DAY 13—14   /   方法笔记 · 结果以实测为准</text><rect x="165" y="538" width="15" height="18" rx="3" fill="#CDE8DE" stroke="#1C796A" stroke-width="3"/><rect x="187" y="538" width="15" height="18" rx="3" fill="#CDE8DE" stroke="#1C796A" stroke-width="3"/><rect x="209" y="538" width="15" height="18" rx="3" fill="#CDE8DE" stroke="#1C796A" stroke-width="3"/><rect x="231" y="538" width="15" height="18" rx="3" fill="#CDE8DE" stroke="#1C796A" stroke-width="3"/><rect x="253" y="538" width="15" height="18" rx="3" fill="#CDE8DE" stroke="#1C796A" stroke-width="3"/><rect x="275" y="538" width="15" height="18" rx="3" fill="#CDE8DE" stroke="#1C796A" stroke-width="3"/><rect x="165" y="564" width="15" height="18" rx="3" fill="#CDE8DE" stroke="#1C796A" stroke-width="3"/><rect x="187" y="564" width="15" height="18" rx="3" fill="#CDE8DE" stroke="#1C796A" stroke-width="3"/><rect x="209" y="564" width="15" height="18" rx="3" fill="#CDE8DE" stroke="#1C796A" stroke-width="3"/><rect x="231" y="564" width="15" height="18" rx="3" fill="#CDE8DE" stroke="#1C796A" stroke-width="3"/><rect x="253" y="564" width="15" height="18" rx="3" fill="#CDE8DE" stroke="#1C796A" stroke-width="3"/><rect x="275" y="564" width="15" height="18" rx="3" fill="#CDE8DE" stroke="#1C796A" stroke-width="3"/><rect x="165" y="590" width="15" height="18" rx="3" fill="#CDE8DE" stroke="#1C796A" stroke-width="3"/><rect x="187" y="590" width="15" height="18" rx="3" fill="#CDE8DE" stroke="#1C796A" stroke-width="3"/><rect x="209" y="590" width="15" height="18" rx="3" fill="#CDE8DE" stroke="#1C796A" stroke-width="3"/><rect x="231" y="590" width="15" height="18" rx="3" fill="#CDE8DE" stroke="#1C796A" stroke-width="3"/><rect x="253" y="590" width="15" height="18" rx="3" fill="#CDE8DE" stroke="#1C796A" stroke-width="3"/><rect x="275" y="590" width="15" height="18" rx="3" fill="#CDE8DE" stroke="#1C796A" stroke-width="3"/><rect x="165" y="616" width="15" height="18" rx="3" fill="#CDE8DE" stroke="#1C796A" stroke-width="3"/><rect x="187" y="616" width="15" height="18" rx="3" fill="#CDE8DE" stroke="#1C796A" stroke-width="3"/><rect x="209" y="616" width="15" height="18" rx="3" fill="#CDE8DE" stroke="#1C796A" stroke-width="3"/><rect x="231" y="616" width="15" height="18" rx="3" fill="#CDE8DE" stroke="#1C796A" stroke-width="3"/><rect x="253" y="616" width="15" height="18" rx="3" fill="#CDE8DE" stroke="#1C796A" stroke-width="3"/><rect x="275" y="616" width="15" height="18" rx="3" fill="#CDE8DE" stroke="#1C796A" stroke-width="3"/><rect x="165" y="642" width="15" height="18" rx="3" fill="#CDE8DE" stroke="#1C796A" stroke-width="3"/><rect x="187" y="642" width="15" height="18" rx="3" fill="#CDE8DE" stroke="#1C796A" stroke-width="3"/><rect x="209" y="642" width="15" height="18" rx="3" fill="#CDE8DE" stroke="#1C796A" stroke-width="3"/><rect x="231" y="642" width="15" height="18" rx="3" fill="#CDE8DE" stroke="#1C796A" stroke-width="3"/><rect x="253" y="642" width="15" height="18" rx="3" fill="#CDE8DE" stroke="#1C796A" stroke-width="3"/><rect x="275" y="642" width="15" height="18" rx="3" fill="#CDE8DE" stroke="#1C796A" stroke-width="3"/><text x="230" y="740" font-size="54" fill="#183435" font-weight="500" text-anchor="middle">61维</text><path d="M330 605 L423 605" stroke="#1C796A" stroke-width="5" fill="none" marker-end="url(#arrow)"/><rect x="446" y="526" width="188" height="165" rx="20" fill="#CDE8DE" stroke="#183435" stroke-width="3"/><text x="540" y="605" font-size="38" fill="#183435" font-weight="500" text-anchor="middle">ONNX</text><text x="540" y="650" font-size="25" fill="#183435" font-weight="500" text-anchor="middle">合同先行</text><path d="M657 605 L741 605" stroke="#1C796A" stroke-width="5" fill="none" marker-end="url(#arrow)"/><rect x="770" y="525" width="110" height="13" rx="4" fill="#F4D7B8" stroke="#183435" stroke-width="3"/><rect x="770" y="549" width="110" height="13" rx="4" fill="#F4D7B8" stroke="#183435" stroke-width="3"/><rect x="770" y="573" width="110" height="13" rx="4" fill="#F4D7B8" stroke="#183435" stroke-width="3"/><rect x="770" y="597" width="110" height="13" rx="4" fill="#F4D7B8" stroke="#183435" stroke-width="3"/><rect x="770" y="621" width="110" height="13" rx="4" fill="#F4D7B8" stroke="#183435" stroke-width="3"/><rect x="770" y="645" width="110" height="13" rx="4" fill="#F4D7B8" stroke="#183435" stroke-width="3"/><rect x="770" y="669" width="110" height="13" rx="4" fill="#F4D7B8" stroke="#183435" stroke-width="3"/><text x="825" y="740" font-size="54" fill="#183435" font-weight="500" text-anchor="middle">14维</text><text x="540" y="863" font-size="31" fill="#183435" font-weight="500" text-anchor="middle">先核对维度，再核对每一维的含义</text><rect x="64" y="1045" width="952" height="240" rx="20" fill="#183435" stroke="#183435" stroke-width="3"/><text x="102" y="1100" font-size="25" fill="#CDE8DE" font-weight="700" text-anchor="start">本期复现关卡</text><text x="102" y="1159" font-size="31" fill="#FFFFFF" font-weight="600" text-anchor="start">输入输出实际shape归档，动态维度不擅自补零</text><text x="67" y="1350" font-size="24" fill="#1C796A" font-weight="500" text-anchor="start">技术示意 · 非实测画面 · 非GPT生成</text><text x="1015" y="1350" font-size="25" fill="#1C796A" font-weight="500" text-anchor="end">07 / 20</text><text x="67" y="1397" font-size="21" fill="#63766E" font-weight="500" text-anchor="start">从看到画面，到理解动作，再到安全装配。</text></g></svg>